<svg width="150" height="31" viewBox="0 0 150 31" fill="none" xmlns="http://www.w3.org/2000/svg">
<path d="M42.3583 10.0599H50.3825L42.3583 23.5083V23.9059H55.9657V20.9176H47.99L55.9657 7.49078V7.09448H42.3583V10.0599Z" fill="white"/>
<path d="M90.3248 8.13112C89.1467 7.42749 87.7462 7.07568 86.1206 7.07568C84.495 7.07568 83.0945 7.42749 81.9164 8.13112C80.7383 8.83474 79.8325 9.82008 79.1963 11.0858C78.5601 12.3515 78.2419 13.8234 78.2419 15.5003C78.2419 17.1771 78.5601 18.6491 79.1963 19.9148C79.8325 21.1805 80.7383 22.1658 81.9164 22.8694C83.0945 23.5731 84.495 23.9249 86.1206 23.9249C87.7462 23.9249 89.1467 23.5731 90.3248 22.8694C91.5029 22.1658 92.4087 21.1805 93.045 19.9148C93.6812 18.6491 93.998 17.1785 93.998 15.5003C93.998 13.8221 93.6798 12.3515 93.045 11.0858C92.4087 9.82008 91.5029 8.83609 90.3248 8.13112ZM90.1402 18.3754C89.8059 19.195 89.3045 19.8272 88.6345 20.2733C87.966 20.7195 87.1275 20.9352 86.1206 20.9203C85.1137 20.9055 84.2753 20.675 83.6067 20.2288C82.9382 19.7827 82.4367 19.1572 82.1011 18.3525C81.7668 17.5478 81.5997 16.5962 81.5997 15.4989C81.5997 14.4017 81.7668 13.4433 82.1011 12.6238C82.4354 11.8042 82.9368 11.1721 83.6067 10.7259C84.2753 10.2797 85.1137 10.0641 86.1206 10.0789C87.1275 10.0937 87.966 10.3242 88.6345 10.7704C89.3031 11.2165 89.8045 11.842 90.1402 12.6467C90.4745 13.4514 90.6416 14.4031 90.6416 15.5003C90.6416 16.5975 90.4745 17.5559 90.1402 18.3754Z" fill="white"/>
<path d="M106.315 18.2554L100.849 7.09448H97.8685V23.9059H100.849V13.8652L105.751 23.9059H106.878L111.781 13.8652V23.9059H114.761V7.09448H111.781L106.315 18.2554Z" fill="white"/>
<path d="M131.066 16.2646C131.77 15.2644 132.122 14.0607 132.122 12.6521C132.122 11.7099 131.969 10.8567 131.665 10.0897C131.36 9.32274 130.884 8.68651 130.24 8.18104C129.594 7.67556 128.768 7.34397 127.758 7.18896C127.54 7.14987 127.291 7.12425 127.013 7.11347C126.735 7.10134 126.514 7.09595 126.35 7.09595H119.218V23.9074H122.408V18.2097H125.968L128.742 23.9074H132.355L129.305 17.6799C130.043 17.3551 130.63 16.8833 131.065 16.266L131.066 16.2646ZM122.41 10.0601H126.211C126.375 10.0601 126.555 10.0681 126.75 10.083C126.946 10.0991 127.125 10.1302 127.289 10.176C127.719 10.2933 128.052 10.4887 128.287 10.765C128.521 11.0414 128.683 11.3487 128.773 11.687C128.864 12.0253 128.908 12.3462 128.908 12.6508C128.908 12.9554 128.864 13.2749 128.773 13.6146C128.683 13.9529 128.521 14.2602 128.287 14.5366C128.052 14.8129 127.719 15.0097 127.289 15.1256C127.125 15.1728 126.946 15.2038 126.75 15.2186C126.555 15.2348 126.375 15.2415 126.211 15.2415H122.41V10.0587V10.0601Z" fill="white"/>
<path d="M144.345 15.4072L149.858 7.09448H145.917L142.373 12.5051L138.785 7.09448H134.867L140.381 15.4072L134.703 23.9059H138.645L142.373 18.3497L146.081 23.9059H150L144.345 15.4072Z" fill="white"/>
<path d="M71.4082 8.13112C70.2301 7.42749 68.8296 7.07568 67.204 7.07568C65.5784 7.07568 64.1779 7.42749 62.9998 8.13112C61.8217 8.83474 60.9159 9.82008 60.2796 11.0858C59.6434 12.3515 59.3253 13.8234 59.3253 15.5003C59.3253 17.1771 59.6434 18.6491 60.2796 19.9148C60.9159 21.1805 61.8217 22.1658 62.9998 22.8694C64.1779 23.5731 65.5784 23.9249 67.204 23.9249C68.8296 23.9249 70.2301 23.5731 71.4082 22.8694C72.5863 22.1658 73.4921 21.1805 74.1283 19.9148C74.7646 18.6491 75.0813 17.1785 75.0813 15.5003C75.0813 13.8221 74.7632 12.3515 74.1283 11.0858C73.4921 9.82008 72.5863 8.83609 71.4082 8.13112ZM71.2235 18.3754C70.8893 19.195 70.3878 19.8272 69.7179 20.2733C69.0493 20.7195 68.2109 20.9352 67.204 20.9203C66.1971 20.9055 65.3587 20.675 64.6901 20.2288C64.0215 19.7827 63.5201 19.1572 63.1845 18.3525C62.8502 17.5478 62.683 16.5962 62.683 15.4989C62.683 14.4017 62.8502 13.4433 63.1845 12.6238C63.5187 11.8042 64.0202 11.1721 64.6901 10.7259C65.3587 10.2797 66.1971 10.0641 67.204 10.0789C68.2109 10.0937 69.0493 10.3242 69.7179 10.7704C70.3865 11.2165 70.8879 11.842 71.2235 12.6467C71.5578 13.4514 71.725 14.4031 71.725 15.5003C71.725 16.5975 71.5578 17.5559 71.2235 18.3754Z" fill="white"/>
<path d="M14.6272 15.5302L3.68287 8.9183C3.32026 8.69858 2.98731 8.42763 2.71906 8.09468C0.862874 5.78962 2.38475 2.01929 5.56466 2.01929H23.6897C26.8696 2.01929 28.3915 5.78962 26.5353 8.09468C26.2671 8.42763 25.9341 8.69858 25.5715 8.9183L14.6272 15.5302Z" fill="url(#paint0_linear_40_1437)"/>
<path d="M16.1628 15.4709L27.1072 22.0828C27.4698 22.3026 27.8027 22.5735 28.071 22.9065C29.9272 25.2115 28.4053 28.9818 25.2254 28.9818H7.10031C3.9204 28.9818 2.39852 25.2115 4.2547 22.9065C4.52295 22.5735 4.85591 22.3026 5.21851 22.0828L16.1628 15.4709Z" fill="url(#paint1_linear_40_1437)"/>
<path d="M20.9822 3.37426L3.26938 21.0871C1.46375 22.8927 1.46375 25.8202 3.26938 27.6258C5.07501 29.4315 8.00251 29.4315 9.80814 27.6258L27.521 9.91302C29.3266 8.10739 29.3266 5.17989 27.5209 3.37426C25.7153 1.56863 22.7878 1.56863 20.9822 3.37426Z" fill="white"/>
<defs>
<linearGradient id="paint0_linear_40_1437" x1="3.85946" y1="-0.803404" x2="24.5592" y2="11.7518" gradientUnits="userSpaceOnUse">
<stop stop-color="white"/>
<stop offset="0.17" stop-color="white" stop-opacity="0.78"/>
<stop offset="0.4" stop-color="white" stop-opacity="0.5"/>
<stop offset="0.6" stop-color="white" stop-opacity="0.29"/>
<stop offset="0.78" stop-color="white" stop-opacity="0.13"/>
<stop offset="0.92" stop-color="white" stop-opacity="0.04"/>
<stop offset="1" stop-color="white" stop-opacity="0"/>
</linearGradient>
<linearGradient id="paint1_linear_40_1437" x1="26.9306" y1="31.8045" x2="6.23085" y2="19.2494" gradientUnits="userSpaceOnUse">
<stop stop-color="white"/>
<stop offset="0.17" stop-color="white" stop-opacity="0.78"/>
<stop offset="0.4" stop-color="white" stop-opacity="0.5"/>
<stop offset="0.6" stop-color="white" stop-opacity="0.29"/>
<stop offset="0.78" stop-color="white" stop-opacity="0.13"/>
<stop offset="0.92" stop-color="white" stop-opacity="0.04"/>
<stop offset="1" stop-color="white" stop-opacity="0"/>
</linearGradient>
</defs>
</svg>
